<svg width="54" height="52" viewBox="0 0 54 52" fill="none" xmlns="http://www.w3.org/2000/svg">
<path d="M17.8384 41.8703C17.8384 42.0854 17.5911 42.2574 17.2793 42.2574C16.9245 42.2897 16.6772 42.1176 16.6772 41.8703C16.6772 41.6553 16.9245 41.4832 17.2363 41.4832C17.5589 41.451 17.8384 41.623 17.8384 41.8703ZM14.4944 41.3865C14.4191 41.6015 14.6342 41.8488 14.9568 41.9133C15.2363 42.0209 15.5589 41.9133 15.6234 41.6983C15.6879 41.4832 15.4836 41.2359 15.1611 41.1392C14.8815 41.0639 14.5697 41.1714 14.4944 41.3865ZM19.247 41.2037C18.9352 41.2789 18.7201 41.4832 18.7524 41.7305C18.7847 41.9456 19.0642 42.0854 19.3868 42.0101C19.6986 41.9348 19.9137 41.7305 19.8814 41.5155C19.8492 41.3112 19.5588 41.1714 19.247 41.2037ZM26.3222 0C11.4084 0 0 11.3224 0 26.2362C0 38.1607 7.50526 48.3648 18.2255 51.9562C19.6018 52.2035 20.0857 51.354 20.0857 50.6551C20.0857 49.9885 20.0535 46.3111 20.0535 44.0531C20.0535 44.0531 12.5267 45.666 10.9461 40.8488C10.9461 40.8488 9.72028 37.7198 7.95687 36.9134C7.95687 36.9134 5.49454 35.2253 8.12891 35.2575C8.12891 35.2575 10.8063 35.4726 12.2794 38.0317C14.6342 42.1821 18.5804 40.9886 20.118 40.2789C20.3653 38.5585 21.0642 37.365 21.8384 36.6553C15.8277 35.9887 9.76329 35.1177 9.76329 24.7738C9.76329 21.8169 10.5805 20.333 12.3009 18.4406C12.0213 17.7417 11.1074 14.86 12.5805 11.1396C14.8277 10.4407 19.9997 14.0428 19.9997 14.0428C22.1502 13.4407 24.462 13.1288 26.7523 13.1288C29.0426 13.1288 31.3544 13.4407 33.5049 14.0428C33.5049 14.0428 38.6768 10.4299 40.9241 11.1396C42.3972 14.8707 41.4832 17.7417 41.2037 18.4406C42.9241 20.3438 43.9778 21.8276 43.9778 24.7738C43.9778 35.15 37.6446 35.9779 31.6339 36.6553C32.6232 37.5048 33.4619 39.1177 33.4619 41.6445C33.4619 45.2681 33.4296 49.7519 33.4296 50.6336C33.4296 51.3325 33.9242 52.182 35.2898 51.9347C46.0423 48.3648 53.3325 38.1607 53.3325 26.2362C53.3325 11.3224 41.2359 0 26.3222 0ZM10.4515 37.0854C10.3117 37.193 10.3439 37.4403 10.5267 37.6446C10.6988 37.8166 10.9461 37.8919 11.0859 37.7521C11.2256 37.6446 11.1934 37.3973 11.0106 37.193C10.8385 37.0209 10.5912 36.9457 10.4515 37.0854ZM9.29018 36.2145C9.21491 36.3543 9.32244 36.5263 9.53749 36.6338C9.70953 36.7414 9.92458 36.7091 9.99985 36.5586C10.0751 36.4188 9.96759 36.2468 9.75254 36.1392C9.53749 36.0747 9.36545 36.107 9.29018 36.2145ZM12.774 40.0424C12.602 40.1822 12.6665 40.5048 12.9138 40.709C13.1611 40.9564 13.4729 40.9886 13.6127 40.8166C13.7525 40.6768 13.688 40.3542 13.4729 40.1499C13.2364 39.9026 12.9138 39.8704 12.774 40.0424ZM11.5482 38.4618C11.3762 38.5693 11.3762 38.8489 11.5482 39.0962C11.7202 39.3435 12.0106 39.451 12.1504 39.3435C12.3224 39.2037 12.3224 38.9241 12.1504 38.6768C11.9998 38.4295 11.7202 38.322 11.5482 38.4618Z" fill="#B2FFA9"/>
</svg>
