<svg width="49" height="54" viewBox="0 0 49 54" fill="none" xmlns="http://www.w3.org/2000/svg">
<path d="M47.8298 13.5C46.3005 10.8686 27.5408 0 24.4854 0C21.4299 0 2.66282 10.8411 1.14302 13.5C-0.376785 16.1589 -0.385222 37.8422 1.14302 40.5C2.67126 43.1578 21.4331 54 24.4854 54C27.5376 54 46.3005 43.1452 47.8288 40.5C49.357 37.8548 49.3591 16.1367 47.8298 13.5ZM30.8103 43.6873C30.3884 43.6873 26.4956 39.9146 26.8025 39.6067C26.8943 39.5149 27.4627 39.4506 28.6535 39.4137C28.6535 36.6472 28.7157 32.1796 28.7526 30.3096C28.7526 30.0987 28.7062 29.9479 28.7062 29.6926H20.2761C20.2761 30.4414 20.2276 33.5106 20.4206 37.3792C20.4449 37.858 20.254 38.012 19.8152 38.0057C18.7468 38.0057 17.6774 37.9941 16.6079 37.9972C16.1755 37.9972 15.9888 37.8359 16.0025 37.3528C16.0995 33.8259 16.3189 28.4934 15.9867 14.9228V14.5884C14.9668 14.5515 14.2591 14.483 14.1663 14.3944C13.8583 14.0864 17.8092 10.3138 18.2258 10.3138C18.6424 10.3138 22.5679 14.0875 22.2621 14.3944C22.1703 14.4861 21.4289 14.5515 20.4934 14.5884V14.9217C20.2381 17.6375 20.2824 23.316 20.216 26.0371H28.6809C28.6809 25.5572 28.722 22.3731 28.5543 17.2157C28.5438 16.8581 28.6545 16.6704 28.9984 16.6672C30.1659 16.6588 31.3345 16.6535 32.5031 16.6609C32.868 16.6609 32.9851 16.8423 32.9777 17.2283C32.5896 37.4034 32.906 35.9954 32.906 39.4126C33.8415 39.4495 34.68 39.5181 34.7717 39.6067C35.0755 39.9136 31.2259 43.6873 30.8082 43.6873H30.8103Z" fill="#B2FFA9"/>
</svg>
