<svg width="53" height="52" viewBox="0 0 53 52" fill="none" xmlns="http://www.w3.org/2000/svg">
<path d="M26.2294 12.6679C18.8497 12.6679 12.8972 18.6203 12.8972 26C12.8972 33.3797 18.8497 39.3321 26.2294 39.3321C33.609 39.3321 39.5615 33.3797 39.5615 26C39.5615 18.6203 33.609 12.6679 26.2294 12.6679ZM26.2294 34.6676C21.4604 34.6676 17.5617 30.7805 17.5617 26C17.5617 21.2195 21.4488 17.3324 26.2294 17.3324C31.0099 17.3324 34.897 21.2195 34.897 26C34.897 30.7805 30.9983 34.6676 26.2294 34.6676ZM43.2165 12.1225C43.2165 13.8514 41.8242 15.2322 40.1069 15.2322C38.378 15.2322 36.9972 13.8398 36.9972 12.1225C36.9972 10.4052 38.3896 9.01283 40.1069 9.01283C41.8242 9.01283 43.2165 10.4052 43.2165 12.1225ZM52.0466 15.2786C51.8494 11.113 50.8979 7.42318 47.8462 4.38313C44.8062 1.34308 41.1164 0.39161 36.9508 0.182751C32.6576 -0.0609171 19.7896 -0.0609171 15.4964 0.182751C11.3424 0.380007 7.65256 1.33147 4.6009 4.37153C1.54925 7.41158 0.609383 11.1014 0.400525 15.267C0.156856 19.5602 0.156856 32.4282 0.400525 36.7214C0.59778 40.887 1.54925 44.5768 4.6009 47.6169C7.65256 50.6569 11.3308 51.6084 15.4964 51.8172C19.7896 52.0609 32.6576 52.0609 36.9508 51.8172C41.1164 51.62 44.8062 50.6685 47.8462 47.6169C50.8863 44.5768 51.8378 40.887 52.0466 36.7214C52.2903 32.4282 52.2903 19.5718 52.0466 15.2786ZM46.5003 41.3279C45.5952 43.6021 43.8431 45.3542 41.5573 46.2709C38.1343 47.6285 30.012 47.3152 26.2294 47.3152C22.4467 47.3152 14.3128 47.6169 10.9015 46.2709C8.62723 45.3658 6.87514 43.6137 5.95849 41.3279C4.6009 37.9049 4.91419 29.7827 4.91419 26C4.91419 22.2173 4.61251 14.0835 5.95849 10.6721C6.86354 8.39786 8.61563 6.64577 10.9015 5.72911C14.3244 4.37153 22.4467 4.68481 26.2294 4.68481C30.012 4.68481 38.1459 4.38313 41.5573 5.72911C43.8315 6.63416 45.5836 8.38625 46.5003 10.6721C47.8578 14.0951 47.5446 22.2173 47.5446 26C47.5446 29.7827 47.8578 37.9165 46.5003 41.3279Z" fill="#B2FFA9"/>
</svg>
