<svg width="52" height="52" viewBox="0 0 52 52" fill="none" xmlns="http://www.w3.org/2000/svg">
<path d="M48.2857 0H3.70268C1.65982 0 0 1.68304 0 3.74911V48.2509C0 50.317 1.65982 52 3.70268 52H48.2857C50.3286 52 52 50.317 52 48.2509V3.74911C52 1.68304 50.3286 0 48.2857 0ZM15.7161 44.5714H8.00893V19.7554H15.7277V44.5714H15.7161ZM11.8625 16.3661C9.39018 16.3661 7.39375 14.358 7.39375 11.8973C7.39375 9.43661 9.39018 7.42857 11.8625 7.42857C14.3232 7.42857 16.3312 9.43661 16.3312 11.8973C16.3312 14.3696 14.3348 16.3661 11.8625 16.3661ZM44.6062 44.5714H36.8991V32.5C36.8991 29.6214 36.8411 25.9187 32.8946 25.9187C28.8786 25.9187 28.2634 29.0527 28.2634 32.2911V44.5714H20.5563V19.7554H27.95V23.1446H28.0545C29.0875 21.1946 31.6062 19.1402 35.3554 19.1402C43.1554 19.1402 44.6062 24.2821 44.6062 30.9679V44.5714Z" fill="#B2FFA9"/>
</svg>
