<svg width="52" height="52" viewBox="0 0 52 52" fill="none" xmlns="http://www.w3.org/2000/svg">
<path d="M26 0C11.6371 0 0 11.6371 0 26C0 40.3629 11.6371 52 26 52C40.3629 52 52 40.3629 52 26C52 11.6371 40.3629 0 26 0ZM43.7702 35.5298C43.4032 36.379 41.8726 36.9976 39.0734 37.4379C38.9266 37.6371 38.8113 38.4653 38.6226 39.1048C38.5073 39.4927 38.2347 39.7234 37.7734 39.7234H37.7524C37.1024 39.7234 36.4105 39.4194 35.0476 39.4194C33.2024 39.4194 32.5629 39.8387 31.1266 40.8556C29.6065 41.9355 28.1492 42.8581 25.9685 42.7637C23.7669 42.9314 21.9218 41.5895 20.8839 40.8556C19.4371 39.8387 18.8081 39.4194 16.9629 39.4194C15.6524 39.4194 14.8242 39.7444 14.2581 39.7444C13.6919 39.7444 13.4718 39.3984 13.3879 39.1153C13.1992 38.4758 13.0839 37.6371 12.9371 37.4379C11.4903 37.2177 8.24032 36.6516 8.16694 35.1944C8.14597 34.8169 8.40806 34.4814 8.78548 34.4185C13.6395 33.6218 15.8202 28.6419 15.9145 28.4323C15.9145 28.4218 15.925 28.4113 15.9355 28.4008C16.1976 27.8766 16.25 27.4363 16.1032 27.0903C15.7468 26.2621 14.2266 25.9685 13.5871 25.7065C11.9306 25.0565 11.7 24.3016 11.8048 23.7879C11.9726 22.8968 13.3145 22.3411 14.1008 22.7081C14.7194 23.0016 15.275 23.1484 15.7468 23.1484C16.0927 23.1484 16.3234 23.0645 16.4387 23.0016C16.2919 20.496 15.946 16.921 16.8371 14.9185C19.196 9.64516 24.1863 9.22581 25.654 9.22581C25.7169 9.22581 26.2935 9.21532 26.3565 9.21532C29.9944 9.21532 33.4855 11.0815 35.1944 14.9081C36.0855 16.9105 35.7395 20.475 35.5927 22.9911C35.7081 23.054 35.8968 23.1274 36.1903 23.1379C36.6411 23.1169 37.1548 22.9702 37.7314 22.6976C38.1508 22.4984 38.7379 22.5298 39.1573 22.6976C39.8177 22.9387 40.2371 23.4105 40.2476 23.9452C40.2581 24.6266 39.65 25.2137 38.4444 25.6855C38.2976 25.7484 38.1194 25.8008 37.9306 25.8637C37.2492 26.0839 36.2113 26.4089 35.9387 27.0694C35.7919 27.4153 35.8548 27.8556 36.1064 28.3798C36.1169 28.3903 36.1169 28.4008 36.1274 28.4113C36.2218 28.621 38.4024 33.6008 43.2565 34.3976C43.6758 34.5024 44.0008 34.9742 43.7702 35.5298Z" fill="#B2FFA9"/>
</svg>
