<svg width="53" height="44" viewBox="0 0 53 44" fill="none" xmlns="http://www.w3.org/2000/svg">
<path d="M46.7697 11.4085C46.8027 11.8705 46.8027 12.3325 46.8027 12.7944C46.8027 26.8832 36.0794 43.1168 16.4803 43.1168C10.4422 43.1168 4.83305 41.368 0.114746 38.3326C0.972648 38.4315 1.79744 38.4645 2.68835 38.4645C7.67052 38.4645 12.2569 36.7818 15.9194 33.9112C11.2341 33.8122 7.30763 30.7437 5.95482 26.5203C6.61477 26.6192 7.27463 26.6852 7.96759 26.6852C8.92441 26.6852 9.88134 26.5532 10.7721 26.3223C5.8889 25.3324 2.22634 21.0431 2.22634 15.8629V15.731C3.64507 16.5228 5.29496 17.0178 7.04357 17.0837C4.173 15.1699 2.29236 11.9035 2.29236 8.208C2.29236 6.22833 2.82018 4.41361 3.7441 2.82983C8.99033 9.29685 16.8762 13.5201 25.7188 13.9822C25.5538 13.1903 25.4548 12.3655 25.4548 11.5406C25.4548 5.6674 30.2061 0.883179 36.1122 0.883179C39.1807 0.883179 41.9523 2.16998 43.899 4.24867C46.3076 3.78676 48.6172 2.89585 50.663 1.67506C49.871 4.14975 48.1883 6.22843 45.9777 7.54814C48.1224 7.31729 50.2011 6.72325 52.1147 5.89846C50.6632 8.01005 48.8484 9.89069 46.7697 11.4085Z" fill="#B2FFA9"/>
</svg>
